<svg xmlns="http://www.w3.org/2000/svg" xmlns:xlink="http://www.w3.org/1999/xlink" width="387" height="353.503" viewBox="0 0 387 353.503">
  <defs>
    <filter id="Rectangle_27" x="31.502" y="229.503" width="342" height="124" filterUnits="userSpaceOnUse">
      <feOffset dy="10" input="SourceAlpha"/>
      <feGaussianBlur stdDeviation="12.5" result="blur"/>
      <feFlood flood-opacity="0.071"/>
      <feComposite operator="in" in2="blur"/>
      <feComposite in="SourceGraphic"/>
    </filter>
  </defs>
  <g id="card2" transform="translate(-37.674 -182)">
    <rect id="image" width="387" height="281" rx="42" transform="translate(37.674 182)" fill="#9e9e9e"/>
    <rect id="overlay" width="387" height="281" rx="43" transform="translate(37.674 182)" fill="#22215b" opacity="0.19"/>
    <g id="play-button" transform="translate(200.855 303.515)">
      <g id="Groupe_91" data-name="Groupe 91">
        <g id="Groupe_90" data-name="Groupe 90">
          <path id="Tracé_102" data-name="Tracé 102" d="M28.813,0A28.813,28.813,0,1,0,57.626,28.813,28.813,28.813,0,0,0,28.813,0Zm0,55.224A26.411,26.411,0,1,1,55.224,28.813,26.411,26.411,0,0,1,28.813,55.224Z" fill="#fcfcfc"/>
          <path id="Tracé_103" data-name="Tracé 103" d="M210.658,160.327l-16.808-10.8a1.2,1.2,0,0,0-1.85,1.01v21.61a1.2,1.2,0,0,0,1.85,1.01l16.808-10.8a1.2,1.2,0,0,0,0-2.019ZM194.4,169.942V152.731l13.387,8.6Z" transform="translate(-170.39 -132.524)" fill="#fcfcfc"/>
        </g>
      </g>
    </g>
    <g id="comments_block" data-name="comments block" transform="translate(107.126 439.063)">
      <g transform="matrix(1, 0, 0, 1, -69.45, -257.06)" filter="url(#Rectangle_27)">
        <rect id="Rectangle_27-2" data-name="Rectangle 27" width="267" height="49" rx="19.5" transform="translate(69 257)" fill="#fff"/>
      </g>
      <g id="rating" transform="translate(205.218 12.901)">
        <g id="rating-2" data-name="rating" transform="translate(22.126)">
          <g id="star_8_" data-name="star (8)">
            <g id="Groupe_66" data-name="Groupe 66">
              <path id="Tracé_35" data-name="Tracé 35" d="M21.636,19.644a.635.635,0,0,0-.512-.432l-6.718-.976L11.4,12.149a.635.635,0,0,0-1.139,0l-3,6.087-6.717.976A.635.635,0,0,0,.2,20.295l4.861,4.738L3.9,31.72a.635.635,0,0,0,.921.669l6.013-3.158,6.013,3.158a.635.635,0,0,0,.921-.669L16.62,25.03l4.861-4.738a.635.635,0,0,0,.152-.648Z" transform="translate(-0.005 -11.796)" fill="#ffe14d"/>
            </g>
          </g>
        </g>
        <text id="_4.8" data-name="4.8" transform="translate(0.33 15.037)" fill="#22215b" font-size="11" font-family="SFProDisplay-Regular, SF Pro Display"><tspan x="0" y="0">4.8</tspan></text>
      </g>
      <g id="comments" transform="translate(22.323 17.282)">
        <text id="_9_Comments" data-name="9 Comments" transform="translate(16.224 7.656)" fill="#bfc3db" font-size="8" font-family="SFProDisplay-Light, SF Pro Display" font-weight="300"><tspan x="0" y="0">9 Comments</tspan></text>
        <g id="chat-comment-oval-speech-bubble-with-text-lines" transform="translate(0 0.004)">
          <g id="_x32__26_">
            <g id="Groupe_137" data-name="Groupe 137">
              <path id="Tracé_129" data-name="Tracé 129" d="M7.81,6.323H4.091a.376.376,0,0,0,0,.744H7.81a.376.376,0,0,0,0-.744Zm.744-2.231H3.347a.376.376,0,1,0,0,.744H8.554a.376.376,0,1,0,0-.744ZM5.95,0C2.665,0,0,2.331,0,5.206A4.983,4.983,0,0,0,2.231,9.27V11.9l2.607-1.582a6.824,6.824,0,0,0,1.112.094c3.286,0,5.95-2.331,5.95-5.206S9.236,0,5.95,0Zm0,9.67A6.013,6.013,0,0,1,4.7,9.533L2.944,10.586l.024-1.725A4.312,4.312,0,0,1,.744,5.206C.744,2.742,3.075.744,5.95.744s5.206,2,5.206,4.463S8.826,9.67,5.95,9.67Z" fill="#bfc3db"/>
            </g>
          </g>
        </g>
      </g>
      <g id="share" transform="translate(99.993 16.831)">
        <text id="_7_Shares" data-name="7 Shares" transform="translate(14.555 8.106)" fill="#bfc3db" font-size="8" font-family="SFProDisplay-Light, SF Pro Display" font-weight="300"><tspan x="0" y="0">7 Shares</tspan></text>
        <path id="share-2" data-name="share" d="M10.648,5.323,5.793,0V3.188H5.229A5.23,5.23,0,0,0,0,8.416v2.232L.932,9.627a6.686,6.686,0,0,1,4.861-2.17v3.191ZM.626,9.047V8.421a4.6,4.6,0,0,1,4.6-4.608h1.19v-2.2L9.8,5.323,6.416,9.035v-2.2H5.858A7.311,7.311,0,0,0,.626,9.047Zm0,0" fill="#bfc3db"/>
      </g>
    </g>
  </g>
</svg>
