<svg xmlns="http://www.w3.org/2000/svg" xmlns:xlink="http://www.w3.org/1999/xlink" width="150.556" height="150.556" viewBox="0 0 150.556 150.556">
  <defs>
    <filter id="Rectangle_82" x="0" y="0" width="150.556" height="150.556" filterUnits="userSpaceOnUse">
      <feOffset dy="8" input="SourceAlpha"/>
      <feGaussianBlur stdDeviation="7.5" result="blur"/>
      <feFlood flood-opacity="0.102"/>
      <feComposite operator="in" in2="blur"/>
      <feComposite in="SourceGraphic"/>
    </filter>
  </defs>
  <g id="emoji1" transform="translate(-594.944 -326.944)">
    <g transform="matrix(1, 0, 0, 1, 594.94, 326.94)" filter="url(#Rectangle_82)">
      <rect id="Rectangle_82-2" data-name="Rectangle 82" width="85.339" height="85.339" rx="24" transform="translate(22.5 38.02) rotate(-16)" fill="#dcf1fd"/>
    </g>
    <g id="smiling-emoticon-square-face" transform="translate(953.072 340.253) rotate(-34)">
      <path id="Tracé_54" data-name="Tracé 54" d="M3.559,6.526a6.4,6.4,0,1,1,6.406,6.407A6.4,6.4,0,0,1,3.559,6.526Zm29.042,0a6.406,6.406,0,1,1,6.407,6.407A6.406,6.406,0,0,1,32.6,6.526ZM47.744,32.76A25.573,25.573,0,0,1,24.06,47.871C13.421,47.87,4.07,41.909.238,32.683a3.1,3.1,0,1,1,5.723-2.376c2.868,6.905,9.972,11.366,18.1,11.366A19.381,19.381,0,0,0,42.054,30.3a3.1,3.1,0,1,1,5.691,2.46Z" transform="translate(-289 -137.333)" fill="#fff"/>
    </g>
  </g>
</svg>
