<svg xmlns="http://www.w3.org/2000/svg" xmlns:xlink="http://www.w3.org/1999/xlink" width="150.556" height="150.556" viewBox="0 0 150.556 150.556">
  <defs>
    <filter id="Rectangle_82" x="0" y="0" width="150.556" height="150.556" filterUnits="userSpaceOnUse">
      <feOffset dy="8" input="SourceAlpha"/>
      <feGaussianBlur stdDeviation="7.5" result="blur"/>
      <feFlood flood-opacity="0.102"/>
      <feComposite operator="in" in2="blur"/>
      <feComposite in="SourceGraphic"/>
    </filter>
  </defs>
  <g id="emoji2" transform="translate(-590.944 -325.944)">
    <g transform="matrix(1, 0, 0, 1, 590.94, 325.94)" filter="url(#Rectangle_82)">
      <rect id="Rectangle_82-2" data-name="Rectangle 82" width="85.339" height="85.339" rx="24" transform="translate(22.5 38.02) rotate(-16)" fill="#f8c6dc"/>
    </g>
    <g id="sad-sleepy-emoticon-face-square" transform="translate(630.952 375.091) rotate(-22)">
      <path id="Tracé_52" data-name="Tracé 52" d="M.83,15.613A2.624,2.624,0,1,1,4.414,11.78c2.839,2.666,5.754.214,6.077-.076a2.623,2.623,0,0,1,3.377-.1,2.54,2.54,0,0,1,.328.309,2.624,2.624,0,0,1-.205,3.7C11.666,17.7,5.951,20.4.83,15.613Zm49.615-3.736a2.624,2.624,0,0,1-.205,3.7c-2.326,2.083-8.042,4.789-13.162,0a2.624,2.624,0,1,1,3.584-3.833c2.839,2.666,5.754.214,6.077-.076a2.623,2.623,0,0,1,3.377-.1,2.793,2.793,0,0,1,.329.309ZM46.528,39.209a2.62,2.62,0,0,1-4.809,2.08,16.387,16.387,0,0,0-15.213-9.616c-6.87,0-12.878,3.773-15.3,9.613a2.62,2.62,0,0,1-4.838-2.01c3.242-7.8,11.146-12.84,20.141-12.84A21.614,21.614,0,0,1,46.528,39.209Z" transform="translate(0 3)" fill="#fff"/>
    </g>
  </g>
</svg>
