<svg xmlns="http://www.w3.org/2000/svg" xmlns:xlink="http://www.w3.org/1999/xlink" width="213.197" height="213.197" viewBox="0 0 213.197 213.197">
  <defs>
    <filter id="Rectangle_82" x="0" y="0" width="213.197" height="213.197" filterUnits="userSpaceOnUse">
      <feOffset dy="8" input="SourceAlpha"/>
      <feGaussianBlur stdDeviation="7.5" result="blur"/>
      <feFlood flood-opacity="0.102"/>
      <feComposite operator="in" in2="blur"/>
      <feComposite in="SourceGraphic"/>
    </filter>
  </defs>
  <g id="heart-icon" transform="translate(-640.391 -689.714)">
    <g id="heart-icon-2" data-name="heart-icon" transform="matrix(0.819, 0.574, -0.574, 0.819, 416.956, 40.49)">
      <g transform="matrix(0.82, -0.57, 0.57, 0.82, 555.41, 403.66)" filter="url(#Rectangle_82)">
        <rect id="Rectangle_82-2" data-name="Rectangle 82" width="132.325" height="132.325" rx="24" transform="translate(65.58 14.5) rotate(19)" fill="#fff"/>
      </g>
    </g>
    <path id="heart_2_" data-name="heart (2)" d="M25.539,45.443a3,3,0,0,1-1.975-.742c-2.063-1.8-4.053-3.5-5.808-5l-.009-.008c-5.146-4.385-9.589-8.172-12.681-11.9C1.61,23.624,0,19.67,0,15.35a15.964,15.964,0,0,1,4.052-10.9A13.735,13.735,0,0,1,14.269,0a12.848,12.848,0,0,1,8.025,2.77,16.419,16.419,0,0,1,3.245,3.388A16.421,16.421,0,0,1,28.784,2.77,12.848,12.848,0,0,1,36.809,0,13.736,13.736,0,0,1,47.026,4.447a15.964,15.964,0,0,1,4.052,10.9c0,4.32-1.609,8.274-5.066,12.444-3.092,3.731-7.535,7.518-12.68,11.9-1.758,1.5-3.751,3.2-5.819,5a3,3,0,0,1-1.974.741ZM14.269,2.992A10.776,10.776,0,0,0,6.251,6.475a12.986,12.986,0,0,0-3.26,8.875c0,3.633,1.35,6.882,4.378,10.535,2.926,3.531,7.279,7.24,12.318,11.535l.009.008c1.762,1.5,3.759,3.2,5.838,5.021,2.091-1.821,4.091-3.526,5.857-5.03,5.039-4.295,9.391-8,12.317-11.534,3.027-3.653,4.377-6.9,4.377-10.535a12.986,12.986,0,0,0-3.26-8.875,10.775,10.775,0,0,0-8.017-3.483,9.923,9.923,0,0,0-6.2,2.145,14.519,14.519,0,0,0-3.453,4,1.889,1.889,0,0,1-3.245,0,14.505,14.505,0,0,0-3.453-4,9.923,9.923,0,0,0-6.195-2.145Zm0,0" transform="matrix(0.966, 0.259, -0.259, 0.966, 728.007, 760.164)" fill="#fe4999"/>
  </g>
</svg>
