<svg xmlns="http://www.w3.org/2000/svg" xmlns:xlink="http://www.w3.org/1999/xlink" width="176.111" height="176.111" viewBox="0 0 176.111 176.111">
  <defs>
    <filter id="Rectangle_82" x="0" y="0" width="176.111" height="176.111" filterUnits="userSpaceOnUse">
      <feOffset dy="8" input="SourceAlpha"/>
      <feGaussianBlur stdDeviation="7.5" result="blur"/>
      <feFlood flood-opacity="0.102"/>
      <feComposite operator="in" in2="blur"/>
      <feComposite in="SourceGraphic"/>
    </filter>
  </defs>
  <g id="quote" transform="translate(-594.944 -326.944)">
    <g transform="matrix(1, 0, 0, 1, 594.94, 326.94)" filter="url(#Rectangle_82)">
      <rect id="Rectangle_82-2" data-name="Rectangle 82" width="106" height="106" rx="24" transform="translate(22.5 43.72) rotate(-16)" fill="#fff"/>
    </g>
    <g id="right-quotation-mark_1_" data-name="right-quotation-mark (1)" transform="translate(2167.954 197.141) rotate(-19)">
      <g id="Groupe_12" data-name="Groupe 12" transform="translate(-1491.003 -300.456)">
        <path id="Tracé_3" data-name="Tracé 3" d="M12.556,36.545H4.184a4.039,4.039,0,0,0-2.965,1.221A4.037,4.037,0,0,0,0,40.731V49.1a4.035,4.035,0,0,0,1.221,2.964,4.039,4.039,0,0,0,2.965,1.221H9.068a2.084,2.084,0,0,1,2.093,2.093v.7a5.378,5.378,0,0,1-1.635,3.947,5.378,5.378,0,0,1-3.947,1.635h-1.4a1.342,1.342,0,0,0-.981.415,1.341,1.341,0,0,0-.414.981v2.789a1.342,1.342,0,0,0,.414.981,1.343,1.343,0,0,0,.981.415h1.4a10.877,10.877,0,0,0,4.328-.883,11.245,11.245,0,0,0,3.564-2.387,11.249,11.249,0,0,0,2.387-3.564,10.874,10.874,0,0,0,.883-4.327V40.731a4.168,4.168,0,0,0-4.185-4.186Z" transform="translate(0.003 -36.544)" fill="#6563ff"/>
        <path id="Tracé_4" data-name="Tracé 4" d="M271.339,37.766a4.036,4.036,0,0,0-2.965-1.221H260a4.168,4.168,0,0,0-4.185,4.186V49.1A4.168,4.168,0,0,0,260,53.288h4.883a2.084,2.084,0,0,1,2.093,2.093v.7a5.582,5.582,0,0,1-5.581,5.581H260a1.415,1.415,0,0,0-1.4,1.4v2.791a1.415,1.415,0,0,0,1.4,1.4h1.4a10.878,10.878,0,0,0,4.328-.883,11.057,11.057,0,0,0,5.951-5.952,10.874,10.874,0,0,0,.883-4.327V40.73a4.035,4.035,0,0,0-1.222-2.965Z" transform="translate(-236.282 -36.544)" fill="#6563ff"/>
      </g>
    </g>
  </g>
</svg>
